<svg xmlns="http://www.w3.org/2000/svg" width="1024" height="1024" viewBox="0 0 1024 1024">
  <defs>
    <linearGradient id="background" x1="120" y1="80" x2="900" y2="944" gradientUnits="userSpaceOnUse">
      <stop stop-color="#173F3A"/>
      <stop offset="1" stop-color="#09251F"/>
    </linearGradient>
    <linearGradient id="flow" x1="130" y1="300" x2="510" y2="620" gradientUnits="userSpaceOnUse">
      <stop stop-color="#A9F2D2"/>
      <stop offset="1" stop-color="#55D8A6"/>
    </linearGradient>
    <filter id="shadow" x="300" y="160" width="650" height="700" filterUnits="userSpaceOnUse">
      <feDropShadow dx="0" dy="34" stdDeviation="30" flood-color="#001D17" flood-opacity="0.42"/>
    </filter>
  </defs>

  <rect width="1024" height="1024" rx="226" fill="url(#background)"/>
  <path d="M92 232C272 68 552 12 796 104C910 147 981 224 1024 302V0H0V344C26 302 56 264 92 232Z" fill="#FFFFFF" opacity="0.045"/>

  <g fill="none" stroke="url(#flow)" stroke-width="64" stroke-linecap="round">
    <path d="M164 342H302C379 342 407 397 477 427" opacity="0.72"/>
    <path d="M134 512H466"/>
    <path d="M164 682H302C379 682 407 627 477 597" opacity="0.72"/>
  </g>

  <g filter="url(#shadow)">
    <circle cx="650" cy="512" r="248" fill="#FFF8E8"/>
    <circle cx="650" cy="512" r="188" fill="#123A33"/>
  </g>

  <path d="M542 520L621 599L773 420" fill="none" stroke="#FFBD66" stroke-width="76" stroke-linecap="round" stroke-linejoin="round"/>
  <circle cx="838" cy="252" r="38" fill="#A9F2D2" opacity="0.9"/>
</svg>
